<svg id="ratings" xmlns="http://www.w3.org/2000/svg" width="165.548" height="22.467" viewBox="0 0 165.548 22.467">
  <g id="Vector_Smart_Object" data-name="Vector Smart Object">
    <path id="Path_19" data-name="Path 19" d="M12.532.438a.79.79,0,0,0-1.414,0L7.891,6.947.675,7.99A.784.784,0,0,0,.238,9.329L5.46,14.4,4.226,21.55a.781.781,0,0,0,.315.767.791.791,0,0,0,.83.06L11.825,19l6.454,3.378a.791.791,0,0,0,.83-.06.781.781,0,0,0,.315-.767L18.19,14.4l5.222-5.067a.784.784,0,0,0-.438-1.339L15.759,6.947Z" transform="translate(0)" fill="#eb9e47"/>
  </g>
  <g id="Vector_Smart_Object_copy" data-name="Vector Smart Object copy" transform="translate(35.475)">
    <path id="Path_20" data-name="Path 20" d="M12.532.438a.79.79,0,0,0-1.414,0L7.891,6.947.675,7.99A.784.784,0,0,0,.238,9.329L5.46,14.4,4.226,21.55a.781.781,0,0,0,.315.767.791.791,0,0,0,.83.06L11.825,19l6.454,3.378a.791.791,0,0,0,.83-.06.781.781,0,0,0,.315-.767L18.19,14.4l5.222-5.067a.784.784,0,0,0-.438-1.339L15.759,6.947Z" transform="translate(0)" fill="#eb9e47"/>
  </g>
  <g id="Vector_Smart_Object_copy_2" data-name="Vector Smart Object copy 2" transform="translate(70.949)">
    <path id="Path_21" data-name="Path 21" d="M12.532.438a.79.79,0,0,0-1.414,0L7.891,6.947.675,7.99A.784.784,0,0,0,.238,9.329L5.46,14.4,4.226,21.55a.781.781,0,0,0,.315.767.791.791,0,0,0,.83.06L11.825,19l6.454,3.378a.791.791,0,0,0,.83-.06.781.781,0,0,0,.315-.767L18.19,14.4l5.222-5.067a.784.784,0,0,0-.438-1.339L15.759,6.947Z" transform="translate(0)" fill="#eb9e47"/>
  </g>
  <g id="Vector_Smart_Object_copy_3" data-name="Vector Smart Object copy 3" transform="translate(106.424)">
    <path id="Path_22" data-name="Path 22" d="M12.532.438a.79.79,0,0,0-1.414,0L7.891,6.947.675,7.99A.784.784,0,0,0,.238,9.329L5.46,14.4,4.226,21.55a.781.781,0,0,0,.315.767.791.791,0,0,0,.83.06L11.825,19l6.454,3.378a.791.791,0,0,0,.83-.06.781.781,0,0,0,.315-.767L18.19,14.4l5.222-5.067a.784.784,0,0,0-.438-1.339L15.759,6.947Z" transform="translate(0)" fill="#eb9e47"/>
  </g>
  <g id="Vector_Smart_Object_copy_4" data-name="Vector Smart Object copy 4" transform="translate(141.898)">
    <path id="Path_23" data-name="Path 23" d="M12.532.438a.79.79,0,0,0-1.414,0L7.891,6.947.675,7.99A.784.784,0,0,0,.238,9.329L5.46,14.4,4.226,21.55a.781.781,0,0,0,.315.767.791.791,0,0,0,.83.06L11.825,19l6.454,3.378a.791.791,0,0,0,.83-.06.781.781,0,0,0,.315-.767L18.19,14.4l5.222-5.067a.784.784,0,0,0-.438-1.339L15.759,6.947Z" transform="translate(0)" fill="#eb9e47"/>
  </g>
</svg>
