<svg xmlns="http://www.w3.org/2000/svg" width="60" height="61" viewBox="0 0 60 61">
  <g id="instagram" transform="translate(0.229 0.458)">
    <ellipse id="Ellipse_2" data-name="Ellipse 2" cx="30" cy="30.5" rx="30" ry="30.5" transform="translate(-0.229 -0.458)" fill="#e9e9f6"/>
    <g id="Vector_Smart_Object" data-name="Vector Smart Object" transform="translate(14.425 14.51)">
      <path id="Path_4" data-name="Path 4" d="M16.015,11.09a5.117,5.117,0,1,0,5.117,5.117A5.128,5.128,0,0,0,16.015,11.09Zm15.349,5.117c0-2.118.019-4.219-.1-6.334a9.119,9.119,0,0,0-2.477-6.435A9.118,9.118,0,0,0,22.353.962c-2.12-.119-4.22-.1-6.335-.1S11.8.843,9.684.962A9.127,9.127,0,0,0,3.249,3.439,9.113,9.113,0,0,0,.774,9.873c-.12,2.118-.1,4.219-.1,6.334s-.02,4.219.1,6.335a9.126,9.126,0,0,0,2.476,6.435,9.114,9.114,0,0,0,6.434,2.476c2.12.119,4.219.1,6.335.1s4.219.019,6.335-.1a9.122,9.122,0,0,0,6.433-2.476,9.116,9.116,0,0,0,2.477-6.435C31.386,20.426,31.363,18.327,31.363,16.207ZM16.015,24.082a7.874,7.874,0,1,1,7.874-7.875A7.863,7.863,0,0,1,16.015,24.082Zm8.2-14.232A1.84,1.84,0,1,1,26.05,8.011a1.861,1.861,0,0,1-.139.7,1.833,1.833,0,0,1-.4.6,1.794,1.794,0,0,1-.6.4A1.836,1.836,0,0,1,24.211,9.85Z" transform="translate(-0.673 -0.861)" fill="#009bc9"/>
    </g>
  </g>
</svg>
