<svg xmlns="http://www.w3.org/2000/svg" width="59" height="61" viewBox="0 0 59 61">
  <g id="twitter" transform="translate(-0.085 0.458)">
    <ellipse id="Ellipse_2" data-name="Ellipse 2" cx="29.5" cy="30.5" rx="29.5" ry="30.5" transform="translate(0.085 -0.458)" fill="#e9e9f6"/>
    <g id="Vector_Smart_Object" data-name="Vector Smart Object" transform="translate(14.328 18.512)">
      <path id="Path_3" data-name="Path 3" d="M32.694,3.2a12.879,12.879,0,0,1-3.78,1.042A6.7,6.7,0,0,0,31.8.529a12.8,12.8,0,0,1-4.165,1.627A6.547,6.547,0,0,0,25.454.579,6.414,6.414,0,0,0,22.84.027a6.649,6.649,0,0,0-6.562,6.736,7.918,7.918,0,0,0,.162,1.544A18.5,18.5,0,0,1,2.906,1.259a6.822,6.822,0,0,0-.892,3.4,6.786,6.786,0,0,0,2.925,5.611,6.5,6.5,0,0,1-2.967-.857V9.5A6.7,6.7,0,0,0,7.233,16.1a6.806,6.806,0,0,1-1.728.229,8.666,8.666,0,0,1-1.24-.1A6.6,6.6,0,0,0,10.4,20.9,12.95,12.95,0,0,1,2.252,23.78,12.943,12.943,0,0,1,.667,23.7a18.241,18.241,0,0,0,10.08,3.02c12.07,0,18.676-10.256,18.676-19.16,0-.291,0-.584-.02-.877A14.315,14.315,0,0,0,32.694,3.2Z" transform="translate(-0.667 -0.027)" fill="#009bc9"/>
    </g>
  </g>
</svg>
