<svg xmlns="http://www.w3.org/2000/svg" width="92" height="92" viewBox="0 0 92 92">
  <g id="Group_20" data-name="Group 20" transform="translate(-856 -2290)">
    <rect id="Rectangle_20" data-name="Rectangle 20" width="92" height="92" rx="5" transform="translate(856 2290)" fill="#009bc9"/>
    <g id="flow-chart-line" transform="translate(884 2318)">
      <path id="Path_87" data-name="Path 87" d="M9.8,18.8H26.2v3.08h1.6V17.2h-9V14H17.2v3.2h-9v4.68H9.8V18.8Z" fill="#fff"/>
      <path id="Path_88" data-name="Path 88" d="M14,23H4a2,2,0,0,0-2,2v6a2,2,0,0,0,2,2H14a2,2,0,0,0,2-2V25A2,2,0,0,0,14,23ZM4,31V25H14v6Z" fill="#fff"/>
      <path id="Path_89" data-name="Path 89" d="M32,23H22a2,2,0,0,0-2,2v6a2,2,0,0,0,2,2H32a2,2,0,0,0,2-2V25A2,2,0,0,0,32,23ZM22,31V25H32v6Z" fill="#fff"/>
      <path id="Path_90" data-name="Path 90" d="M13,13H23a2,2,0,0,0,2-2V5a2,2,0,0,0-2-2H13a2,2,0,0,0-2,2v6A2,2,0,0,0,13,13Zm0-8H23v6H13Z" fill="#fff"/>
    </g>
  </g>
</svg>
