<svg xmlns="http://www.w3.org/2000/svg" width="404" height="332" viewBox="0 0 404 332">
  <g id="Vector_Smart_Object" data-name="Vector Smart Object" transform="translate(-0.418 0.377)">
    <circle id="Ellipse_1" data-name="Ellipse 1" cx="16" cy="16" r="16" transform="translate(0.418 -0.377)" fill="#dde"/>
    <circle id="Ellipse_2" data-name="Ellipse 2" cx="16" cy="16" r="16" transform="translate(74.418 -0.377)" fill="#dde"/>
    <circle id="Ellipse_3" data-name="Ellipse 3" cx="16" cy="16" r="16" transform="translate(148.418 -0.377)" fill="#dde"/>
    <circle id="Ellipse_4" data-name="Ellipse 4" cx="16" cy="16" r="16" transform="translate(223.418 -0.377)" fill="#dde"/>
    <circle id="Ellipse_5" data-name="Ellipse 5" cx="16" cy="16" r="16" transform="translate(298.418 -0.377)" fill="#dde"/>
    <circle id="Ellipse_6" data-name="Ellipse 6" cx="16" cy="16" r="16" transform="translate(372.418 -0.377)" fill="#dde"/>
    <circle id="Ellipse_7" data-name="Ellipse 7" cx="16" cy="16" r="16" transform="translate(0.418 75.623)" fill="#dde"/>
    <circle id="Ellipse_8" data-name="Ellipse 8" cx="16" cy="16" r="16" transform="translate(74.418 75.623)" fill="#dde"/>
    <circle id="Ellipse_9" data-name="Ellipse 9" cx="16" cy="16" r="16" transform="translate(148.418 75.623)" fill="#dde"/>
    <circle id="Ellipse_10" data-name="Ellipse 10" cx="16" cy="16" r="16" transform="translate(223.418 75.623)" fill="#dde"/>
    <circle id="Ellipse_11" data-name="Ellipse 11" cx="16" cy="16" r="16" transform="translate(298.418 75.623)" fill="#dde"/>
    <circle id="Ellipse_12" data-name="Ellipse 12" cx="16" cy="16" r="16" transform="translate(372.418 75.623)" fill="#dde"/>
    <ellipse id="Ellipse_13" data-name="Ellipse 13" cx="16" cy="15.5" rx="16" ry="15.5" transform="translate(0.418 150.623)" fill="#dde"/>
    <ellipse id="Ellipse_14" data-name="Ellipse 14" cx="16" cy="15.5" rx="16" ry="15.5" transform="translate(74.418 150.623)" fill="#dde"/>
    <ellipse id="Ellipse_15" data-name="Ellipse 15" cx="16" cy="15.5" rx="16" ry="15.5" transform="translate(148.418 150.623)" fill="#dde"/>
    <ellipse id="Ellipse_16" data-name="Ellipse 16" cx="16" cy="15.5" rx="16" ry="15.5" transform="translate(223.418 150.623)" fill="#dde"/>
    <ellipse id="Ellipse_17" data-name="Ellipse 17" cx="16" cy="15.5" rx="16" ry="15.5" transform="translate(298.418 150.623)" fill="#dde"/>
    <ellipse id="Ellipse_18" data-name="Ellipse 18" cx="16" cy="15.5" rx="16" ry="15.5" transform="translate(372.418 150.623)" fill="#dde"/>
    <circle id="Ellipse_19" data-name="Ellipse 19" cx="16" cy="16" r="16" transform="translate(0.418 224.623)" fill="#dde"/>
    <circle id="Ellipse_20" data-name="Ellipse 20" cx="16" cy="16" r="16" transform="translate(74.418 224.623)" fill="#dde"/>
    <circle id="Ellipse_21" data-name="Ellipse 21" cx="16" cy="16" r="16" transform="translate(148.418 224.623)" fill="#dde"/>
    <circle id="Ellipse_22" data-name="Ellipse 22" cx="16" cy="16" r="16" transform="translate(223.418 224.623)" fill="#dde"/>
    <circle id="Ellipse_23" data-name="Ellipse 23" cx="16" cy="16" r="16" transform="translate(298.418 224.623)" fill="#dde"/>
    <circle id="Ellipse_24" data-name="Ellipse 24" cx="16" cy="16" r="16" transform="translate(372.418 224.623)" fill="#dde"/>
    <circle id="Ellipse_25" data-name="Ellipse 25" cx="16" cy="16" r="16" transform="translate(0.418 299.623)" fill="#dde"/>
    <circle id="Ellipse_26" data-name="Ellipse 26" cx="16" cy="16" r="16" transform="translate(74.418 299.623)" fill="#dde"/>
    <circle id="Ellipse_27" data-name="Ellipse 27" cx="16" cy="16" r="16" transform="translate(148.418 299.623)" fill="#dde"/>
    <circle id="Ellipse_28" data-name="Ellipse 28" cx="16" cy="16" r="16" transform="translate(223.418 299.623)" fill="#dde"/>
    <circle id="Ellipse_29" data-name="Ellipse 29" cx="16" cy="16" r="16" transform="translate(298.418 299.623)" fill="#dde"/>
    <circle id="Ellipse_30" data-name="Ellipse 30" cx="16" cy="16" r="16" transform="translate(372.418 299.623)" fill="#dde"/>
  </g>
</svg>
